TITLE "Fuzzy Warbles 8"
PERFORMER "Andy Partridge"
REM GENRE "Pop"
REM DATE "2006"
REM DISCID 1E0D6213
FILE "Fuzzy Warbles 8.flac" WAVE
  TRACK 01 AUDIO
    TITLE "Through Electric Gardens"
    ISRC GBFHR0600185
    INDEX 01 00:00:00
  TRACK 02 AUDIO
    TITLE "Skate Dreams Wet Car"
    ISRC GBFHR0600186
    INDEX 01 04:59:58
  TRACK 03 AUDIO
    TITLE "The Bland Leading The Bland"
    ISRC GBFHR0600187
    INDEX 01 07:04:43
  TRACK 04 AUDIO
    TITLE "Silverstar"
    ISRC GBFHR0600188
    INDEX 01 11:13:04
  TRACK 05 AUDIO
    TITLE "I Gave My Suitcase Away"
    ISRC GBFHR0600189
    INDEX 00 12:35:48
    INDEX 01 12:35:55
  TRACK 06 AUDIO
    TITLE "Extrovert"
    ISRC GBFHR0600190
    INDEX 01 15:57:23
  TRACK 07 AUDIO
    TITLE "Another Satellite"
    ISRC GBFHR0600191
    INDEX 01 19:35:38
  TRACK 08 AUDIO
    TITLE "These Voices"
    ISRC GBFHR0600192
    INDEX 00 24:45:73
    INDEX 01 24:47:63
  TRACK 09 AUDIO
    TITLE "Song For Wes Long"
    ISRC GBFHR0600193
    INDEX 01 25:50:27
  TRACK 10 AUDIO
    TITLE "Happy Birthday Karen"
    ISRC GBFHR0600194
    INDEX 01 26:46:63
  TRACK 11 AUDIO
    TITLE "REM Producer Enquiry"
    ISRC GBFHR0600195
    INDEX 00 27:50:34
    INDEX 01 27:51:24
  TRACK 12 AUDIO
    TITLE "The Loving"
    ISRC GBFHR0600196
    INDEX 00 30:27:38
    INDEX 01 30:27:70
  TRACK 13 AUDIO
    TITLE "Shalloween"
    ISRC GBFHR0600197
    INDEX 01 34:45:70
  TRACK 14 AUDIO
    TITLE "Was A Yes"
    ISRC GBFHR0600198
    INDEX 00 38:06:37
    INDEX 01 38:08:02
  TRACK 15 AUDIO
    TITLE "Genie In A Bottle"
    ISRC GBFHR0600199
    INDEX 01 40:32:28
  TRACK 16 AUDIO
    TITLE "Disque Bleu"
    ISRC GBFHR0600200
    INDEX 01 42:09:33
  TRACK 17 AUDIO
    TITLE "Poor Skeletons Step Out"
    ISRC GBFHR0600201
    INDEX 01 45:27:20
  TRACK 18 AUDIO
    TITLE "I Don't Want To Be Here (Original Demo)"
    ISRC GBFHR0600202
    INDEX 01 47:48:65
  TRACK 19 AUDIO
    TITLE "Chalkhills And Children"
    ISRC GBFHR0600203
    INDEX 01 52:05:10
